<?xml version="1.0" encoding="utf-8" standalone="yes"?>
<!DOCTYPE svg PUBLIC "-//W3C//DTD SVG 1.1//EN" "http://www.w3.org/Graphics/SVG/1.1/DTD/svg11.dtd">
<svg width="672" height="660" viewBox="0 0 672 660" style="fill:none;stroke:none;fill-rule:evenodd;clip-rule:evenodd;stroke-linecap:round;stroke-linejoin:round;stroke-miterlimit:1.5;" version="1.1" xmlns="http://www.w3.org/2000/svg" xmlns:xlink="http://www.w3.org/1999/xlink"><style class="text-font-style fontImports" data-font-family="Roboto">@import url('https://fonts.googleapis.com/css2?family=Roboto:wght@400;700&amp;display=block');</style><g id="items" style="isolation: isolate"><g id="blend" style="mix-blend-mode: normal"><g id="g-root-cp_5_border-5_mdm1qqqoy39j-fill" data-item-order="-351926" transform="translate(110, 122)"><g id="cp_5_border-5_mdm1qqqoy39j-fill" stroke="none" fill="url(#gradient-c3b321-14556876)"><g><path d="M 10 57C 10 31.0426 30.2333 10 55.1923 10L 106 10L 106 57L 10 57ZM 10 57L 106 57L 106 59L 10 59L 10 57ZM 106.000293 10L 537.999993 10L 537.999993 106L 105.999893 106L 106.000293 10ZM 10 59.01L 106 59L 106 106.0004L 57 106.0104C 31 106.0104 10 84.9676 10 59.01Z"></path></g></g></g><g id="g-root-cp_5_icon_hxsjmaqoy41t-fill" data-item-order="-351903" transform="translate(186.65234375, 122)"></g><g id="g-root-cp_4_border-4_hxsjmaqoy41v-fill" data-item-order="-351882" transform="translate(86, 218)"><g id="cp_4_border-4_hxsjmaqoy41v-fill" stroke="none" fill="url(#gradient-87aa3f-469929121)"><g><path d="M 10 57C 10 31.0426 30.2333 10 55.1923 10L 106 10L 106 57L 10 57ZM 10 57L 106 57L 106 59L 10 59L 10 57ZM 106.000293 10L 561.999993 10L 561.999993 106L 105.999893 106L 106.000293 10ZM 10 59.01L 106 59L 106 106.0004L 57 106.0104C 31 106.0104 10 84.9676 10 59.01Z"></path></g></g></g><g id="g-root-cp_4_icon_3_925jdeqoy4ul-fill" data-item-order="-351859" transform="translate(162.65234375, 218)"></g><g id="g-root-cp_3_border-3_4myic2qoy2h3-fill" data-item-order="-351838" transform="translate(62, 314)"><g id="cp_3_border-3_4myic2qoy2h3-fill" stroke="none" fill="url(#gradient-40ae79-389135447)"><g><path d="M 10 57C 10 31.0426 30.2333 10 55.1923 10L 106 10L 106 57L 10 57ZM 10 57L 106 57L 106 59L 10 59L 10 57ZM 106.000386 10L 585.999986 10L 585.999986 106L 105.999886 106L 106.000386 10ZM 10 59.01L 106 59L 106 106.0004L 57 106.0104C 31 106.0104 10 84.9676 10 59.01Z"></path></g></g></g><g id="g-root-cp_3_icon_6_4myic2qoy2h5-fill" data-item-order="-351815" transform="translate(138.65234375, 314)"></g><g id="g-root-cp_2_border-2_7507mqoy39f-fill" data-item-order="-351794" transform="translate(38, 410)"><g id="cp_2_border-2_7507mqoy39f-fill" stroke="none" fill="url(#gradient-2898bd-56937253)"><g><path d="M 10 57C 10 31.0426 30.2333 10 55.1923 10L 106 10L 106 57L 10 57ZM 10 57L 106 57L 106 59L 10 59L 10 57ZM 106.000378 10L 609.999978 10L 609.999978 106L 105.999878 106L 106.000378 10ZM 10 59.01L 106 59L 106 106.0004L 57 106.0104C 31 106.0104 10 84.9676 10 59.01Z"></path></g></g></g><g id="g-root-cp_2_icon_9_7507mqoy39h-fill" data-item-order="-351771" transform="translate(114.65234375, 410)"></g><g id="g-root-cp_1_border-1_1qcm1xuqoy3v3-fill" data-item-order="-351750" transform="translate(14, 506)"><defs><linearGradient id="gradient-c3b321-14556876" x2="0" y2="1"><stop offset="0" stop-color="#ddc916"></stop><stop offset="1" stop-color="#a99c2c"></stop></linearGradient><linearGradient id="gradient-87aa3f-469929121" x2="0" y2="1"><stop offset="0" stop-color="#91bb39"></stop><stop offset="1" stop-color="#7d9844"></stop></linearGradient><linearGradient id="gradient-40ae79-389135447" x2="0" y2="1"><stop offset="0" stop-color="#3bc482"></stop><stop offset="1" stop-color="#449870"></stop></linearGradient><linearGradient id="gradient-2898bd-56937253" x2="0" y2="1"><stop offset="0" stop-color="#1fa9d7"></stop><stop offset="1" stop-color="#3187a3"></stop></linearGradient><linearGradient id="gradient-4f83d8-135982273" x2="0" y2="1"><stop offset="0" stop-color="#4e88e6"></stop><stop offset="1" stop-color="#4f7eca"></stop></linearGradient></defs><g id="cp_1_border-1_1qcm1xuqoy3v3-fill" stroke="none" fill="url(#gradient-4f83d8-135982273)"><g><path d="M 10 57C 10 31.0426 31.0426 10 57 10L 634 10L 634 57L 10 57ZM 10 56.980469L 634 56.980469L 634 58.999969L 10 58.999969L 10 56.980469ZM 10 59L 634 59C 634 84.9576 612.9572 106.0004 586.9996 106.0004L 57.0004 106.0004C 31.0428 106.0004 10 84.9576 10 59Z"></path></g></g></g><g id="g-root-cp_1_icon_12_1usfk2aqoy3up-fill" data-item-order="-351729" transform="translate(110, 506)"></g><g id="g-root-ic_woma_4o7giaqp0wzm-fill" data-item-order="0" transform="translate(206, 242)"></g><g id="g-root-tx_evaluaci_zrkggiqp3p4z-fill" data-item-order="0" transform="translate(302, 230)"><g id="tx_evaluaci_zrkggiqp3p4z-fill" stroke="none" fill="#e4ffac"><g><text style="font: bold 20px Roboto, sans-serif; white-space: pre;" font-weight="bold" font-size="20px" font-family="Roboto, sans-serif"><tspan x="12" y="34" dominant-baseline="ideographic">Evaluación de Inglés</tspan></text></g></g></g><g id="g-root-tx_evaluaci_qvxg7mqp3pxo-fill" data-item-order="0" transform="translate(302, 266)"><g id="tx_evaluaci_qvxg7mqp3pxo-fill" stroke="none" fill="#f4f4f4"><g><text style="font: 15px Roboto, sans-serif; white-space: pre;" font-size="15px" font-family="Roboto, sans-serif"><tspan x="12" y="28" dominant-baseline="ideographic">Evaluación de la competencia en inglés del </tspan><tspan x="12" y="46" dominant-baseline="ideographic">candidato.</tspan></text></g></g></g><g id="g-root-tx_4_940ymqqp0w7d-fill" data-item-order="0" transform="translate(122, 248)"><g id="tx_4_940ymqqp0w7d-fill" stroke="none" fill="#e4ffac"><g><text style="font: bold 30px Roboto, sans-serif; white-space: pre;" font-weight="bold" font-size="30px" font-family="Roboto, sans-serif"><tspan x="13.39" y="45" dominant-baseline="ideographic">4</tspan></text></g></g></g><g id="g-root-tx_reuninfi_hznyvmqp0veo-fill" data-item-order="0" transform="translate(326, 170)"><g id="tx_reuninfi_hznyvmqp0veo-fill" stroke="none" fill="#f4f4f4"><g><text style="font: 15px Roboto, sans-serif; white-space: pre;" font-size="15px" font-family="Roboto, sans-serif"><tspan x="12" y="28" dominant-baseline="ideographic">Reunión final con el cliente para evaluar la </tspan><tspan x="12" y="46" dominant-baseline="ideographic">idoneidad cultural.</tspan></text></g></g></g><g id="g-root-ic_buil_dkgxuaqp3rim-fill" data-item-order="0" transform="translate(182, 338)"></g><g id="g-root-tx_entrevis_m7davmqp7z0i-fill" data-item-order="0" transform="translate(278, 326)"><g id="tx_entrevis_m7davmqp7z0i-fill" stroke="none" fill="#bbffde"><g><text style="font: bold 20px Roboto, sans-serif; white-space: pre;" font-weight="bold" font-size="20px" font-family="Roboto, sans-serif"><tspan x="12" y="34" dominant-baseline="ideographic">Entrevista Técnica</tspan></text></g></g></g><g id="g-root-tx_3_mg3y36qp3qpx-fill" data-item-order="0" transform="translate(98, 344)"><g id="tx_3_mg3y36qp3qpx-fill" stroke="none" fill="#bbffde"><g><text style="font: bold 30px Roboto, sans-serif; white-space: pre;" font-weight="bold" font-size="30px" font-family="Roboto, sans-serif"><tspan x="13.39" y="45" dominant-baseline="ideographic">3</tspan></text></g></g></g><g id="g-root-tx_discusin_dccrpuqp7wnf-fill" data-item-order="0" transform="translate(278, 362)"><g id="tx_discusin_dccrpuqp7wnf-fill" stroke="none" fill="#f4f4f4"><g><text style="font: 15px Roboto, sans-serif; white-space: pre;" font-size="15px" font-family="Roboto, sans-serif"><tspan x="12" y="28" dominant-baseline="ideographic">Discusión en profundidad de habilidades técnicas </tspan><tspan x="12" y="46" dominant-baseline="ideographic">con entrevistadores.</tspan></text></g></g></g><g id="g-root-tx_5_1hhlis2qoy29w-fill" data-item-order="0" transform="translate(146, 152)"><g id="tx_5_1hhlis2qoy29w-fill" stroke="none" fill="#fff7ad"><g><text style="font: bold 30px Roboto, sans-serif; white-space: pre;" font-weight="bold" font-size="30px" font-family="Roboto, sans-serif"><tspan x="13.39" y="45" dominant-baseline="ideographic">5</tspan></text></g></g></g><g id="g-root-tx_entrevis_meuzwyqp0xs7-fill" data-item-order="0" transform="translate(326, 134)"><g id="tx_entrevis_meuzwyqp0xs7-fill" stroke="none" fill="#fff7ad"><g><text style="font: bold 20px Roboto, sans-serif; white-space: pre;" font-weight="bold" font-size="20px" font-family="Roboto, sans-serif"><tspan x="12" y="34" dominant-baseline="ideographic">Entrevista con Cliente</tspan></text></g></g></g><g id="g-root-ic_moni_8wj9leqp7xfp-fill" data-item-order="0" transform="translate(158, 434)"></g><g id="g-root-tx_pruebatc_hssqxeqparyn-fill" data-item-order="0" transform="translate(254, 422)"><g id="tx_pruebatc_hssqxeqparyn-fill" stroke="none" fill="#c2f0ff"><g><text style="font: bold 20px Roboto, sans-serif; white-space: pre;" font-weight="bold" font-size="20px" font-family="Roboto, sans-serif"><tspan x="12" y="34" dominant-baseline="ideographic">Prueba Técnica</tspan></text></g></g></g><g id="g-root-tx_2_8wj9leqp7xfo-fill" data-item-order="0" transform="translate(74, 440)"><g id="tx_2_8wj9leqp7xfo-fill" stroke="none" fill="#c2f0ff"><g><text style="font: bold 30px Roboto, sans-serif; white-space: pre;" font-weight="bold" font-size="30px" font-family="Roboto, sans-serif"><tspan x="13.39" y="45" dominant-baseline="ideographic">2</tspan></text></g></g></g><g id="g-root-tx_evaluaci_ddlpw2qpapl4-fill" data-item-order="0" transform="translate(254, 458)"><g id="tx_evaluaci_ddlpw2qpapl4-fill" stroke="none" fill="#f4f4f4"><g><text style="font: 15px Roboto, sans-serif; white-space: pre;" font-size="15px" font-family="Roboto, sans-serif"><tspan x="12" y="28" dominant-baseline="ideographic">Evaluación de habilidades técnicas a través de </tspan><tspan x="12" y="46" dominant-baseline="ideographic">pruebas.</tspan></text></g></g></g><g id="g-root-ic_hand_14650eqqoy3ut-fill" data-item-order="0" transform="translate(230, 146)"></g><g id="g-root-tx_procesod_1lwsjteqoy4nf-fill" data-item-order="0" transform="translate(116, 38)"><g id="tx_procesod_1lwsjteqoy4nf-fill" stroke="none" fill="#f4f4f4"><g><text style="font: bold 25px Roboto, sans-serif; white-space: pre;" font-weight="bold" font-size="25px" font-family="Roboto, sans-serif"><tspan x="15.32" y="42" dominant-baseline="ideographic">Proceso de Selección de Candidatos</tspan></text></g></g></g><g id="g-root-tx_1_8xs7rmqpaqdd-fill" data-item-order="0" transform="translate(50, 536)"><g id="tx_1_8xs7rmqpaqdd-fill" stroke="none" fill="#d0e2ff"><g><text style="font: bold 30px Roboto, sans-serif; white-space: pre;" font-weight="bold" font-size="30px" font-family="Roboto, sans-serif"><tspan x="13.39" y="45" dominant-baseline="ideographic">1</tspan></text></g></g></g><g id="g-root-ic_mult_8xs7rmqpaqde-fill" data-item-order="0" transform="translate(134, 530)"></g><g id="g-root-tx_filtrocu_v6r5n6qpdlhf-fill" data-item-order="0" transform="translate(230, 524)"><g id="tx_filtrocu_v6r5n6qpdlhf-fill" stroke="none" fill="#d0e2ff"><g><text style="font: bold 20px Roboto, sans-serif; white-space: pre;" font-weight="bold" font-size="20px" font-family="Roboto, sans-serif"><tspan x="12" y="34" dominant-baseline="ideographic">Filtro Curricular</tspan></text></g></g></g><g id="g-root-tx_revisini_mbqmheqpdj4c-fill" data-item-order="0" transform="translate(230, 560)"><g id="tx_revisini_mbqmheqpdj4c-fill" stroke="none" fill="#f4f4f4"><g><text style="font: 15px Roboto, sans-serif; white-space: pre;" font-size="15px" font-family="Roboto, sans-serif"><tspan x="12" y="31" dominant-baseline="ideographic">Revisión inicial de currículums para evaluar la idoneidad.</tspan></text></g></g></g><g id="g-root-cp_5_border-5_mdm1qqqoy39j-stroke" data-item-order="-351926" transform="translate(110, 122)"><g id="cp_5_border-5_mdm1qqqoy39j-stroke" fill="none" stroke-linecap="round" stroke-linejoin="round" stroke-miterlimit="4" stroke="#f4f4f4" stroke-width="2"><g><path d="M 10 57C 10 31.0426 31.0426 10 57 10L 206.5 10M 10 58.999969L 10 56.980469M 10 59C 10 84.9576 31 106.0004 57 106.0004L 86.5 106.0004M 207 106.0004L 183 106.0004M 206.642944 10L 538.000244 10L 538.000244 106L 206.643144 106"></path></g></g></g><g id="g-root-cp_5_icon_hxsjmaqoy41t-stroke" data-item-order="-351903" transform="translate(186.65234375, 122)"><g id="cp_5_icon_hxsjmaqoy41t-stroke" fill="none" stroke-linecap="round" stroke-linejoin="round" stroke-miterlimit="4" stroke="#f4f4f4" stroke-width="2"><g><path d="M 29.347656 23.4164C 29.347656 18.4588 31.036556 13.7576 33.989656 10M 129.989656 10C 127.036556 13.7576 125.347656 18.4587 125.347656 23.4164M 125.347656 23L 125.347656 83M 29.347656 83L 29.347656 23M 125.3474 82.871094C 125.3474 90.341794 120.7018 97.170994 113.3474 100.511994C 110.4109 101.845994 107.9063 103.736094 105.9568 106.001194M 29.3474 82.871094C 29.3474 90.341794 24.7018 97.170994 17.3474 100.511994C 14.4326 101.836194 11.9432 103.708294 10 105.951194"></path></g></g></g><g id="g-root-cp_4_border-4_hxsjmaqoy41v-stroke" data-item-order="-351882" transform="translate(86, 218)"><g id="cp_4_border-4_hxsjmaqoy41v-stroke" fill="none" stroke-linecap="round" stroke-linejoin="round" stroke-miterlimit="4" stroke="#f4f4f4" stroke-width="2"><g><path d="M 10 57C 10 31.0426 31.0426 10 57 10L 110.5 10M 10 58.999969L 10 56.980469M 10 59C 10 84.9576 31 106.0004 57 106.0004L 86.5 106.0004M 207 106.0004L 183 106.0004M 206.64296 10L 562.00026 10L 562.00026 106L 206.64316 106"></path></g></g></g><g id="g-root-cp_4_icon_3_925jdeqoy4ul-stroke" data-item-order="-351859" transform="translate(162.65234375, 218)"><g id="cp_4_icon_3_925jdeqoy4ul-stroke" fill="none" stroke-linecap="round" stroke-linejoin="round" stroke-miterlimit="4" stroke="#f4f4f4" stroke-width="2"><g><path d="M 29.347656 23.4164C 29.347656 18.4588 31.036556 13.7576 33.989656 10M 129.989656 10C 127.036556 13.7576 125.347656 18.4587 125.347656 23.4164M 125.347656 23L 125.347656 83M 29.347656 83L 29.347656 23M 125.3474 82.871094C 125.3474 90.341794 120.7018 97.170994 113.3474 100.511994C 110.4109 101.845994 107.9063 103.736094 105.9568 106.001194M 29.3474 82.871094C 29.3474 90.341794 24.7018 97.170994 17.3474 100.511994C 14.4326 101.836194 11.9432 103.708294 10 105.951194"></path></g></g></g><g id="g-root-cp_3_border-3_4myic2qoy2h3-stroke" data-item-order="-351838" transform="translate(62, 314)"><g id="cp_3_border-3_4myic2qoy2h3-stroke" fill="none" stroke-linecap="round" stroke-linejoin="round" stroke-miterlimit="4" stroke="#f4f4f4" stroke-width="2"><g><path d="M 10 57C 10 31.0426 31.0426 10 57 10L 110.5 10M 10 58.999969L 10 56.980469M 10 59C 10 84.9576 31 106.0004 57 106.0004L 86.5 106.0004M 207 106.0004L 183 106.0004M 206.64296 10L 586.00026 10L 586.00026 106L 206.64316 106"></path></g></g></g><g id="g-root-cp_3_icon_6_4myic2qoy2h5-stroke" data-item-order="-351815" transform="translate(138.65234375, 314)"><g id="cp_3_icon_6_4myic2qoy2h5-stroke" fill="none" stroke-linecap="round" stroke-linejoin="round" stroke-miterlimit="4" stroke="#f4f4f4" stroke-width="2"><g><path d="M 29.347656 23.4164C 29.347656 18.4588 31.036556 13.7576 33.989656 10M 129.989656 10C 127.036556 13.7576 125.347656 18.4587 125.347656 23.4164M 125.347656 23L 125.347656 83M 29.347656 83L 29.347656 23M 125.3474 82.871094C 125.3474 90.341794 120.7018 97.170994 113.3474 100.511994C 110.4109 101.845994 107.9063 103.736094 105.9568 106.001194M 29.3474 82.871094C 29.3474 90.341794 24.7018 97.170994 17.3474 100.511994C 14.4326 101.836194 11.9432 103.708294 10 105.951194"></path></g></g></g><g id="g-root-cp_2_border-2_7507mqoy39f-stroke" data-item-order="-351794" transform="translate(38, 410)"><g id="cp_2_border-2_7507mqoy39f-stroke" fill="none" stroke-linecap="round" stroke-linejoin="round" stroke-miterlimit="4" stroke="#f4f4f4" stroke-width="2"><g><path d="M 10 57C 10 31.0426 31.0426 10 57 10L 110.5 10M 10 58.999969L 10 56.980469M 10 59C 10 84.9576 31 106.0004 57 106.0004L 86.5 106.0004M 207 106.0004L 183 106.0004M 206.642975 10L 610.000275 10L 610.000275 106L 206.643175 106"></path></g></g></g><g id="g-root-cp_2_icon_9_7507mqoy39h-stroke" data-item-order="-351771" transform="translate(114.65234375, 410)"><g id="cp_2_icon_9_7507mqoy39h-stroke" fill="none" stroke-linecap="round" stroke-linejoin="round" stroke-miterlimit="4" stroke="#f4f4f4" stroke-width="2"><g><path d="M 29.347656 23.4164C 29.347656 18.4588 31.036556 13.7576 33.989656 10M 129.989656 10C 127.036556 13.7576 125.347656 18.4587 125.347656 23.4164M 125.347656 23L 125.347656 83M 29.347656 83L 29.347656 23M 125.3474 82.871094C 125.3474 90.341794 120.7018 97.170994 113.3474 100.511994C 110.4109 101.845994 107.9063 103.736094 105.9568 106.001194M 29.3474 82.871094C 29.3474 90.341794 24.7018 97.170994 17.3474 100.511994C 14.4326 101.836194 11.9432 103.708294 10 105.951194"></path></g></g></g><g id="g-root-cp_1_border-1_1qcm1xuqoy3v3-stroke" data-item-order="-351750" transform="translate(14, 506)"><g id="cp_1_border-1_1qcm1xuqoy3v3-stroke" fill="none" stroke-linecap="round" stroke-linejoin="round" stroke-miterlimit="4" stroke="#f4f4f4" stroke-width="2"><g><path d="M 10 57C 10 31.0426 31.0426 10 57 10L 110.5 10M 634.00029 57L 634.00029 10L 206.64299 10M 634 56.980469L 634 58.999969M 10 58.999969L 10 56.980469M 10 59C 10 84.9576 31.0428 106.0004 57.0004 106.0004L 586.9996 106.0004C 612.9572 106.0004 634 84.9576 634 59"></path></g></g></g><g id="g-root-cp_1_icon_12_1usfk2aqoy3up-stroke" data-item-order="-351729" transform="translate(110, 506)"><g id="cp_1_icon_12_1usfk2aqoy3up-stroke" fill="none" stroke-linecap="round" stroke-linejoin="round" stroke-miterlimit="4" stroke="#f4f4f4" stroke-width="2"><g><path d="M 10 23.4164C 10 18.4588 11.6889 13.7576 14.642 10M 110.642 10C 107.6889 13.7576 106 18.4587 106 23.4164M 106 23L 106 60M 10 60L 10 23M 10 59.75C 10 85.2927 30.7065 105.9992 56.2492 105.9992L 59.7508 105.9992C 85.2935 105.9992 106 85.2927 106 59.75"></path></g></g></g><g id="g-root-ic_woma_4o7giaqp0wzm-stroke" data-item-order="0" transform="translate(206, 242)"><g id="ic_woma_4o7giaqp0wzm-stroke" fill="none" stroke-linecap="round" stroke-linejoin="round" stroke-miterlimit="4" stroke="#f4f4f4" stroke-width="2"><g><path d="M 24.48 28C 24.173159 27.029089 24.011414 26.018179 24 25L 24 21C 24 15.477153 28.477154 11 34 11C 39.52285 11 44 15.477153 44 21L 44 25C 44.001274 26.117228 43.81189 27.226482 43.439999 28.279999M 24 22C 24 22 28 23 32 18C 32 18 35 22 44 22M 29 24.5C 29.276142 24.5 29.5 24.723858 29.5 25C 29.5 25.276142 29.276142 25.5 29 25.5C 28.723858 25.5 28.5 25.276142 28.5 25C 28.5 24.723858 28.723858 24.5 29 24.5M 39 24.5C 39.276142 24.5 39.5 24.723858 39.5 25C 39.5 25.276142 39.276142 25.5 39 25.5C 38.723858 25.5 38.5 25.276142 38.5 25C 38.5 24.723858 38.723858 24.5 39 24.5M 15 42.939999L 15 50.459999C 14.970399 51.395535 15.5936 52.226467 16.5 52.459999L 34 57L 34 35L 17.6 29.82C 16.993782 29.629349 16.33304 29.738142 15.819952 30.113091C 15.306863 30.488041 15.002502 31.084515 15 31.719999L 15 35.059998M 34 35L 50.400002 29.82C 51.006218 29.629349 51.666962 29.738142 52.18005 30.113091C 52.693138 30.488041 52.997498 31.084515 53 31.719999L 53 35.059998M 53 42.939999L 53 50.459999C 53.029602 51.395535 52.406399 52.226467 51.5 52.459999L 34 57M 11 39C 11 42 13.8 43 16 43C 16.552284 43 17 42.552284 17 42L 17 36C 17 35.447716 16.552284 35 16 35C 13.8 35 11 36 11 39ZM 57 39C 57 42 54.200001 43 52 43C 51.447716 43 51 42.552284 51 42L 51 36C 51 35.447716 51.447716 35 52 35C 54.200001 35 57 36 57 39Z"></path></g></g></g><g id="g-root-tx_evaluaci_zrkggiqp3p4z-stroke" data-item-order="0" transform="translate(302, 230)"></g><g id="g-root-tx_evaluaci_qvxg7mqp3pxo-stroke" data-item-order="0" transform="translate(302, 266)"></g><g id="g-root-tx_4_940ymqqp0w7d-stroke" data-item-order="0" transform="translate(122, 248)"></g><g id="g-root-tx_reuninfi_hznyvmqp0veo-stroke" data-item-order="0" transform="translate(326, 170)"></g><g id="g-root-ic_buil_dkgxuaqp3rim-stroke" data-item-order="0" transform="translate(182, 338)"><g id="ic_buil_dkgxuaqp3rim-stroke" fill="none" stroke-linecap="round" stroke-linejoin="round" stroke-miterlimit="4" stroke="#f4f4f4" stroke-width="2"><g><path d="M 44 13L 49 13C 50.104568 13 51 13.895431 51 15L 51 29C 51 30.10457 50.104568 31 49 31L 41 31L 35.854 36.152C 35.711243 36.29512 35.496353 36.3382 35.30946 36.261169C 35.122566 36.184135 35.000446 36.002144 35 35.799999L 35 31L 21 31C 19.895432 31 19 30.10457 19 29L 19 15C 19 13.895431 19.895432 13 21 13L 25 13M 14.26 42.5C 14.26 45.537567 16.722435 48 19.76 48C 22.797565 48 25.26 45.537567 25.26 42.5C 25.26 39.462433 22.797565 37 19.76 37C 16.722435 37 14.26 39.462433 14.26 42.5M 28.518 57C 27.592688 52.90662 23.955658 49.999977 19.758999 49.999977C 15.562343 49.999977 11.925311 52.90662 11 56.999996M 42.740002 42.5C 42.740002 45.537567 45.202435 48 48.240002 48C 51.277569 48 53.740002 45.537567 53.740002 42.5C 53.740002 39.462433 51.277569 37 48.240002 37C 45.202435 37 42.740002 39.462433 42.740002 42.5M 57 57C 56.074688 52.90662 52.437656 49.999977 48.240997 49.999977C 44.044342 49.999977 40.40731 52.90662 39.481998 56.999996M 37 25L 30 25C 29.447716 25 29 24.552284 29 24L 29 12.618C 29.000011 12.271272 29.17963 11.949294 29.474657 11.767143C 29.769686 11.584991 30.138014 11.568666 30.448 11.724L 37 15ZM 37 17L 42 17C 42.552284 17 43 17.447716 43 18L 43 24C 43 24.552284 42.552284 25 42 25L 37 25M 29 17L 32 17M 29 21L 32 21M 37 15L 37 11"></path></g></g></g><g id="g-root-tx_entrevis_m7davmqp7z0i-stroke" data-item-order="0" transform="translate(278, 326)"></g><g id="g-root-tx_3_mg3y36qp3qpx-stroke" data-item-order="0" transform="translate(98, 344)"></g><g id="g-root-tx_discusin_dccrpuqp7wnf-stroke" data-item-order="0" transform="translate(278, 362)"></g><g id="g-root-tx_5_1hhlis2qoy29w-stroke" data-item-order="0" transform="translate(146, 152)"></g><g id="g-root-tx_entrevis_meuzwyqp0xs7-stroke" data-item-order="0" transform="translate(326, 134)"></g><g id="g-root-ic_moni_8wj9leqp7xfp-stroke" data-item-order="0" transform="translate(158, 434)"><g id="ic_moni_8wj9leqp7xfp-stroke" fill="none" stroke-linecap="round" stroke-linejoin="round" stroke-miterlimit="4" stroke="#f4f4f4" stroke-width="2"><g><path d="M 33.5 31.959999L 42.5 22.959999M 43.68 15.780001C 42.92392 16.531593 42.499157 17.553911 42.5 18.619999L 42.5 22.959999L 47.84 22.959999C 48.90609 22.960846 49.928406 22.536079 50.68 21.779999L 55.5 16.959999L 48.5 16.959999L 48.5 10.96ZM 39.5 56.959999L 27.5 56.959999C 29.217556 54.620441 30.255709 51.852032 30.5 48.959999L 36.5 48.959999C 36.756348 51.849304 37.793324 54.614571 39.5 56.959999ZM 24.540001 57.040001L 43.5 56.959999M 12.5 42.959999L 54.5 42.959999M 54.5 26.959999L 54.5 46C 54.5 47.656857 53.156857 49 51.5 49L 15.5 49C 13.843145 49 12.5 47.656857 12.5 46L 12.5 20C 12.5 18.343147 13.843145 17 15.5 17L 34.34 17M 26.5 31.959999C 26.500002 35.825996 29.634008 38.959999 33.5 38.959999C 37.365993 38.959999 40.5 35.825996 40.5 31.960001C 40.5 28.094007 37.365993 24.960001 33.5 24.960001C 29.634008 24.960001 26.500002 28.094007 26.500002 31.960001"></path></g></g></g><g id="g-root-tx_pruebatc_hssqxeqparyn-stroke" data-item-order="0" transform="translate(254, 422)"></g><g id="g-root-tx_2_8wj9leqp7xfo-stroke" data-item-order="0" transform="translate(74, 440)"></g><g id="g-root-tx_evaluaci_ddlpw2qpapl4-stroke" data-item-order="0" transform="translate(254, 458)"></g><g id="g-root-ic_hand_14650eqqoy3ut-stroke" data-item-order="0" transform="translate(230, 146)"><g id="ic_hand_14650eqqoy3ut-stroke" fill="none" stroke-linecap="round" stroke-linejoin="round" stroke-miterlimit="4" stroke="#f4f4f4" stroke-width="2"><g><path d="M 46.438 18.158001C 46.869148 18.720186 46.869148 19.501812 46.438 20.063999C 44.82 22.186001 40.375999 27.106001 33.970001 27.106001C 27.563999 27.106001 23.118 22.184 21.5 20.063999C 21.068153 19.502048 21.068153 18.719952 21.5 18.158001C 23.118 16.038 27.562 11.116 33.970001 11.116C 40.377998 11.116 44.82 16.038 46.438 18.158001ZM 33.970001 15.914C 35.737312 15.914 37.169998 17.346689 37.169998 19.114C 37.169998 20.881311 35.737312 22.313999 33.970001 22.313999C 32.20269 22.313999 30.77 20.881311 30.77 19.114C 30.77 17.346689 32.20269 15.914 33.970001 15.914M 50.669998 48.790001L 40.686001 49.622002M 38.858002 37L 31.884001 39.304001C 30.766235 39.673225 29.549505 39.143654 29.058001 38.074001C 28.526007 36.930046 28.996655 35.570297 30.122 35L 36.877998 31.6C 38.041801 31.013649 39.396461 30.935453 40.619999 31.383999L 50.619999 35.042M 31.152 34.482002L 30.431999 33.882C 29.255816 33.016418 27.715963 32.819778 26.360001 33.362L 17.41 36.942001M 11.376 33.526001L 15.4 33.526001C 16.463955 33.481941 17.363358 34.306244 17.412001 35.370003L 17.412001 48.273998C 17.363367 49.337463 16.463615 50.161194 15.4 50.116001L 11.376 50.116001M 56.624001 50.116001L 52.599998 50.116001C 51.536385 50.161194 50.636631 49.337463 50.588001 48.273998L 50.588001 35.370003C 50.636642 34.306244 51.536045 33.481941 52.599998 33.526001L 56.622002 33.526001M 36.096001 38.566002L 41.295998 45.706001C 41.950714 46.606876 42.009312 47.810104 41.445236 48.770336C 40.881157 49.730568 39.801659 50.265232 38.695999 50.132C 38.425102 51.574432 37.078224 52.556767 35.622002 52.374001C 35.351997 53.816769 34.004116 54.798962 32.548 54.613998C 32.33247 55.702129 31.494892 56.560432 30.412354 56.80249C 29.329815 57.044544 28.206446 56.62471 27.548 55.731998L 22.302 49.141998C 21.526314 48.156109 20.355686 47.562016 19.102001 47.518002L 17.41 47.456001M 32.556 54.613998L 31.152 52.891998M 35.629997 52.374001L 34.428001 50.776001M 38.704002 50.132L 37.389999 48.346001"></path></g></g></g><g id="g-root-tx_procesod_1lwsjteqoy4nf-stroke" data-item-order="0" transform="translate(116, 38)"></g><g id="g-root-tx_1_8xs7rmqpaqdd-stroke" data-item-order="0" transform="translate(50, 536)"></g><g id="g-root-ic_mult_8xs7rmqpaqde-stroke" data-item-order="0" transform="translate(134, 530)"><g id="ic_mult_8xs7rmqpaqde-stroke" fill="none" stroke-linecap="round" stroke-linejoin="round" stroke-miterlimit="4" stroke="#f4f4f4" stroke-width="2"><g><path d="M 21 44L 17 44C 15.895431 44 15 43.104568 15 42L 15 14C 15 12.895431 15.895431 12 17 12L 39 12C 40.104568 12 41 12.895431 41 14L 41 18M 27 50L 23 50C 21.895432 50 21 49.104568 21 48L 21 20C 21 18.895432 21.895432 18 23 18L 45 18C 46.104568 18 47 18.895432 47 20L 47 24M 29 24L 51 24C 51 24 53 24 53 26L 53 54C 53 54 53 56 51 56L 29 56C 29 56 27 56 27 54L 27 26C 27 26 27 24 29 24M 31 32L 31.732 33.464001C 31.870932 33.743011 32.135712 33.938057 32.443375 33.98801C 32.751034 34.037964 33.063927 33.936722 33.283997 33.716L 37 30M 41 32L 49 32M 31 42L 31.732 43.464001C 31.870932 43.743011 32.135712 43.938053 32.443375 43.98801C 32.751034 44.037964 33.063927 43.936718 33.283997 43.716L 37 40M 41 42L 49 42M 41 48L 45 48"></path></g></g></g><g id="g-root-tx_filtrocu_v6r5n6qpdlhf-stroke" data-item-order="0" transform="translate(230, 524)"></g><g id="g-root-tx_revisini_mbqmheqpdj4c-stroke" data-item-order="0" transform="translate(230, 560)"></g></g></g><path id="wzk1vtws35wjm" d="M65.283 12.757a.35.35 0 0 0 .584.157l5.203-5.141-6.183 3.523.396 1.461zm-2.216-11.7a.35.35 0 0 0-.522.305v3.111l3.276-1.868-2.754-1.548zm3.728 2.105l-4.25 2.421v2.445l6.391-3.644-2.141-1.222zm4.708 3.303a.35.35 0 0 0 0-.609l-1.592-.9-7.365 4.199v1.782a.35.35 0 0 0 .523.305l8.435-4.777z M44.542 2.513c0-.433.355-.783.792-.783s.792.35.792.783-.355.783-.792.783-.792-.35-.792-.783zm59.171 0c0-.433.355-.783.792-.783s.792.35.792.783-.355.783-.792.783-.792-.35-.792-.783zm-85.951 7.636h-1.27v-.487c-.276.201-.864.609-1.881.609-1.202 0-2.274-.794-2.137-2.078.118-1.106 1.153-1.584 1.848-1.727l2.17-.345c0-.539-.29-.956-1.064-1.006s-1.21.305-1.571 1.017l-1.124-.605c1.218-2.631 5.029-1.764 5.029.414v4.207zm-1.27-2.86c.006.396-.062 1.112-.819 1.59-.587.37-1.841.299-1.903-.395-.049-.555.461-.791.906-.898l1.816-.297zm72.662 2.86h-1.27v-.487c-.276.201-.864.609-1.881.609-1.202 0-2.274-.794-2.137-2.078.118-1.106 1.153-1.584 1.848-1.727l2.17-.345c0-.539-.29-.956-1.064-1.006s-1.21.305-1.571 1.017l-1.124-.605c1.218-2.631 5.029-1.764 5.029.414v4.207zm-1.27-2.86c.006.396-.062 1.112-.82 1.59-.587.37-1.841.299-1.903-.395-.049-.555.461-.791.906-.898l1.816-.297zM99.096 10.149H97.85v-8.45h1.246v4.895l2.68-2.559h1.738l-2.633 2.535 2.715 3.578h-1.556l-2.077-2.707-.867.844v1.863zm6.053-6.114h-1.255v6.113h1.255V4.035zm-59.2 0h-1.255v6.113h1.255V4.035zm5.584 6.113V1.697h1.255v2.695c.361-.346 1-.485 1.47-.485 1.452 0 2.477 1.082 2.457 2.448v3.792h-1.27v-3.68c0-.408-.214-1.339-1.315-1.339-.968 0-1.342.756-1.342 1.339v3.681h-1.255zm-4.76-4.894V4.039h.621a.45.45 0 0 0 .45-.45v-.855h1.251v1.305h1.309v1.215h-1.309v3.109c0 .293.105.664.648.664.365 0 .531-.035.736-.07v1.137s-.361.113-.857.113c-1.398 0-1.777-1.051-1.777-1.788V5.254h-1.071zM36.528 4.039h-1.394l2.191 6.106h1.125l1.234-3.918 1.238 3.918h1.129l2.188-6.106h-1.383l-1.359 3.93-1.256-3.93h-1.124l-1.242 3.957-1.348-3.957zM26.212 7.141c-.02 1.566 1.187 3.129 3.223 3.129 1.566 0 2.383-.918 2.734-1.719L31.172 8c-.315.399-.801 1.094-1.738 1.094-1.145 0-1.825-.781-1.891-1.52h4.625c.074-.284.148-.995-.03-1.559-.336-1.064-1.221-2.102-2.839-2.102s-3.088 1.152-3.088 3.227zm1.363-.75h3.348c-.055-.43-.566-1.301-1.623-1.301a1.79 1.79 0 0 0-1.725 1.301zm-8.758.75c.038 1.758 1.277 3.133 3.145 3.133 1.074 0 1.723-.477 1.961-.672v.547h1.242V1.703h-1.258v2.888c-.414-.36-1.062-.68-1.93-.68-1.91 0-3.198 1.473-3.16 3.23zm1.309-.08c0 1.119.723 1.978 1.836 1.978a1.88 1.88 0 0 0 1.94-1.904c0-1.371-1.011-1.99-1.972-1.99s-1.805.798-1.805 1.916zm76.683-.028C96.771 5.275 95.532 3.9 93.664 3.9c-1.074 0-1.723.477-1.961.672v-.547h-1.242v8.22h1.258V9.583c.414.36 1.063.68 1.93.68 1.91 0 3.198-1.473 3.16-3.23zm-1.309.08c0-1.119-.723-1.978-1.836-1.978a1.88 1.88 0 0 0-1.94 1.904c0 1.371 1.011 1.99 1.972 1.99S95.5 8.231 95.5 7.113zM106.441 10.173V4.036h1.254v.382c.361-.346 1-.485 1.47-.485 1.452 0 2.477 1.082 2.457 2.448v3.792h-1.27V6.492c0-.408-.214-1.339-1.315-1.339-.969 0-1.342.756-1.342 1.339v3.681h-1.254zm-30.383-.021V1.824h1.084l4.215 5.777V1.824h1.32v8.328h-1.094l-4.207-5.796v5.796h-1.319zM5.24 10.149H4V2.377h1.014l2.664 3.597 2.654-3.592h1.03v7.766h-1.256V4.762L7.678 8.068 5.24 4.742v5.407z" transform="translate(17, 629)" fill="#ababab88" stroke="none"></path></svg>